# xmcd
#
# Track frame offsets:
#	150
#	41311
#	70897
#	91479
#	118821
#	130136
#	163513
#
# Disc length: 2725 seconds
#
# Revision: 1
# Processed by: cddbd v1.5.1PL2 Copyright (c) Steve Scherf et al.
# Submitted via: EasyCDDAExtractor 9.0.0.1
#
DISCID=580aa307
DTITLE=Whitesnake - Glasgow Auditorium (Armadillo) 02-12-04 Disc 2
DYEAR=2004
DGENRE=Hard Rock
TTITLE0=Aint No Love In The Heart Of The City
TTITLE1=Don't Break My Heart Again
TTITLE2=Fool For Your Loving
TTITLE3=Here I Go Again
TTITLE4=David Coverdale Solo
TTITLE5=Take Me With You
TTITLE6=In The Still Of The Night
EXTD=
EXTT0=
EXTT1=
EXTT2=
EXTT3=
EXTT4=
EXTT5=
EXTT6=
PLAYORDER=
